<?xml version="1.0"?>
<svg xmlns="http://www.w3.org/2000/svg" xmlns:xlink="http://www.w3.org/1999/xlink" version="1.1" id="Layer_1" x="0px" y="0px" viewBox="0 0 511.999 511.999" style="enable-background:new 0 0 511.999 511.999;" xml:space="preserve" width="512px" height="512px"><g><g>
	<g>
		<path d="M511.609,118.445l-138.092,137.55l138.026,137.451C512.297,383.915,511.969,122.938,511.609,118.445z" data-original="#000000" class="active-path" data-old_color="#000000" fill="#767676"/>
	</g>
</g><g>
	<g>
		<path d="M461.864,72.392H50.137c-13.393-0.001-25.717,5.275-34.719,13.901c93.83,93.462,142.91,142.348,228.77,227.872    c6.514,6.514,17.088,6.52,23.603,0.027c86.405-86.067,143.034-142.475,228.713-227.819    C487.444,77.624,475.186,72.392,461.864,72.392z" data-original="#000000" class="active-path" data-old_color="#000000" fill="#767676"/>
	</g>
</g><g>
	<g>
		<path d="M0.405,118.458c-0.374,4.608-0.71,265.531,0.06,275.06l138.282-137.261L0.405,118.458z" data-original="#000000" class="active-path" data-old_color="#000000" fill="#767676"/>
	</g>
</g><g>
	<g>
		<path d="M349.862,279.557l-58.49,58.259c-19.487,19.487-51.172,19.571-70.766-0.022l-58.209-57.981L15.543,425.584    c9.002,8.641,21.158,14.023,34.594,14.023h411.727c13.446,0,25.614-5.39,34.617-14.043L349.862,279.557z" data-original="#000000" class="active-path" data-old_color="#000000" fill="#767676"/>
	</g>
</g></g> </svg>