<?xml version="1.0"?><svg xmlns="http://www.w3.org/2000/svg" id="Flat" height="512px" viewBox="0 0 512 512" width="512px" class=""><g transform="matrix(-6.12323e-17 1 -1 -6.12323e-17 512 2.84217e-14)"><path d="m48 488a24 24 0 0 1 -24-24 343.733 343.733 0 0 1 344-344h96a24 24 0 0 1 0 48h-96a296 296 0 0 0 -296 296 24 24 0 0 1 -24 24z" fill="#888888" data-original="#888888" class="active-path" style="fill:#888888" data-old_color="#888888"/><path d="m336.02 264a24 24 0 0 1 -14.42-43.2l102.4-76.8-102.4-76.8a24 24 0 1 1 28.8-38.4l128 96a24 24 0 0 1 0 38.4l-128 96a23.893 23.893 0 0 1 -14.38 4.8z" fill="#888888" data-original="#888888" class="" style="fill:#888888" data-old_color="#888888"/></g> </svg>